<svg width="12" height="9" viewBox="0 0 12 9" fill="none" xmlns="http://www.w3.org/2000/svg">
<path d="M9.32291 3.08867C9.70476 2.9741 10.1014 2.91616 10.5 2.91665C10.8952 2.917 11.2882 2.97497 11.6667 3.08872V0H0V7.58332C0 7.90549 0.26116 8.16665 0.583324 8.16665H6.58875C5.94152 6.00942 7.16565 3.73592 9.32291 3.08867ZM8.16668 1.16668H9.33335V2.33335H8.16668V1.16668ZM5.25 1.16668H6.41668V2.33335H5.25V1.16668ZM3.5 7H2.33332V5.83332H3.5V7ZM3.5 4.66668H2.33332V3.5H3.5V4.66668ZM3.5 2.33332H2.33332V1.16665H3.5V2.33332ZM5.25 3.5H6.41668V4.66668H5.25V3.5Z" fill="#FFBD54"/>
</svg>
